<svg width="16" height="16" viewBox="0 0 16 16" fill="none" xmlns="http://www.w3.org/2000/svg">
<path fill-rule="evenodd" clip-rule="evenodd" d="M10.3915 12.1667L10.3915 3.83333C10.3915 3.3731 10.7496 3 11.1915 3C11.6333 3 11.9915 3.3731 11.9915 3.83333V12.1667C11.9915 12.6269 11.6333 13 11.1915 13C10.7496 13 10.3915 12.6269 10.3915 12.1667ZM4.22603 4.42259C3.91361 4.09715 3.91361 3.56951 4.22603 3.24408C4.53845 2.91864 5.04498 2.91864 5.3574 3.24408L9.07456 7.11612C9.54319 7.60427 9.54318 8.39573 9.07456 8.88388L5.3574 12.7559C5.04498 13.0814 4.53845 13.0814 4.22603 12.7559C3.91361 12.4305 3.91361 11.9028 4.22603 11.5774L7.66034 8L4.22603 4.42259Z" fill="#9E9E9E"/>
</svg>
