<svg width="16" height="16" viewBox="0 0 16 16" fill="none" xmlns="http://www.w3.org/2000/svg">
<path fill-rule="evenodd" clip-rule="evenodd" d="M5.59171 3.83333L5.59171 12.1667C5.59171 12.6269 5.23354 13 4.79171 13C4.34988 13 3.99171 12.6269 3.99171 12.1667V3.83333C3.99171 3.3731 4.34988 3 4.79171 3C5.23354 3 5.59171 3.3731 5.59171 3.83333ZM11.7571 11.5774C12.0696 11.9028 12.0696 12.4305 11.7571 12.7559C11.4447 13.0814 10.9382 13.0814 10.6258 12.7559L6.90861 8.88388C6.43998 8.39573 6.43999 7.60427 6.90861 7.11612L10.6258 3.24408C10.9382 2.91864 11.4447 2.91864 11.7571 3.24408C12.0696 3.56952 12.0696 4.09715 11.7571 4.42259L8.32283 8L11.7571 11.5774Z" fill="#9E9E9E"/>
</svg>
