<svg width="17" height="17" viewBox="0 0 17 17" fill="none" xmlns="http://www.w3.org/2000/svg">
<path d="M12.2802 3.2968C12.6707 2.90628 13.3039 2.90628 13.6944 3.2968C14.0849 3.68732 14.0849 4.32049 13.6944 4.71101L10.4015 8.00391L13.6944 11.2968C14.0849 11.6873 14.0849 12.3205 13.6944 12.711C13.3039 13.1015 12.6707 13.1015 12.2802 12.711L8.98731 9.41812L5.69441 12.711C5.30389 13.1015 4.67072 13.1015 4.2802 12.711C3.88967 12.3205 3.88967 11.6873 4.2802 11.2968L7.57309 8.00391L4.2802 4.71101C3.88967 4.32049 3.88967 3.68732 4.2802 3.2968C4.67072 2.90628 5.30389 2.90628 5.69441 3.2968L8.98731 6.58969L12.2802 3.2968Z" fill="#9E9E9E"/>
</svg>
