<svg width="11" height="10" viewBox="0 0 11 10" fill="none" xmlns="http://www.w3.org/2000/svg">
<g clip-path="url(#clip0)">
<path d="M9.5974 6.16602L8.76406 5.68555C8.84818 5.23242 8.84818 4.76758 8.76406 4.31446L9.5974 3.83399C9.69325 3.7793 9.73629 3.66602 9.70499 3.56055C9.48785 2.86524 9.11813 2.23633 8.63495 1.71289C8.56062 1.63282 8.43933 1.61328 8.34543 1.66797L7.51209 2.14844C7.16194 1.84766 6.75896 1.61524 6.32273 1.46289V0.503909C6.32273 0.394534 6.24644 0.298831 6.13885 0.275394C5.42092 0.115237 4.68539 0.12305 4.00268 0.275394C3.89509 0.298831 3.8188 0.394534 3.8188 0.503909V1.46485C3.38452 1.61914 2.98155 1.85157 2.62943 2.15039L1.79805 1.66992C1.70219 1.61524 1.58287 1.63282 1.50853 1.71485C1.02535 2.23633 0.655629 2.86524 0.438491 3.5625C0.405236 3.66797 0.450228 3.78125 0.546082 3.83594L1.37942 4.31641C1.2953 4.76953 1.2953 5.23438 1.37942 5.6875L0.546082 6.16797C0.450228 6.22266 0.407192 6.33594 0.438491 6.44141C0.655629 7.13672 1.02535 7.76563 1.50853 8.28906C1.58287 8.36914 1.70415 8.38867 1.79805 8.33399L2.63139 7.85352C2.98155 8.1543 3.38452 8.38672 3.82075 8.53907V9.5C3.82075 9.60938 3.89705 9.70508 4.00464 9.72852C4.72256 9.88867 5.45809 9.88086 6.1408 9.72852C6.24839 9.70508 6.32468 9.60938 6.32468 9.5V8.53907C6.75896 8.38477 7.16194 8.15235 7.51405 7.85352L8.34739 8.33399C8.44324 8.38867 8.56257 8.3711 8.63691 8.28906C9.12009 7.76758 9.48981 7.13867 9.70695 6.44141C9.73629 6.33399 9.69325 6.22071 9.5974 6.16602ZM5.07076 6.5625C4.20808 6.5625 3.50581 5.86133 3.50581 5C3.50581 4.13867 4.20808 3.4375 5.07076 3.4375C5.93345 3.4375 6.63572 4.13867 6.63572 5C6.63572 5.86133 5.93345 6.5625 5.07076 6.5625Z" fill="black"/>
</g>
<defs>
<clipPath id="clip0">
<rect width="10.0157" height="10" fill="white" transform="translate(0.0628662)"/>
</clipPath>
</defs>
</svg>
